<svg xmlns="http://www.w3.org/2000/svg" xmlns:xlink="http://www.w3.org/1999/xlink" width="2000" zoomAndPan="magnify" viewBox="0 0 1500 1499.999933" height="2000" preserveAspectRatio="xMidYMid meet" version="1.0"><defs><g></g><clipPath id="f2f3179427"><path d="M 466 856 L 701 856 L 701 1093 L 466 1093 Z M 466 856 " clip-rule="nonzero"></path></clipPath><clipPath id="d12147e308"><path d="M 420.960938 900.945312 L 666.277344 814.058594 L 749.910156 1050.1875 L 504.589844 1137.070312 Z M 420.960938 900.945312 " clip-rule="nonzero"></path></clipPath><clipPath id="97061a2a0a"><path d="M 420.960938 900.945312 L 666.277344 814.058594 L 749.910156 1050.1875 L 504.589844 1137.070312 Z M 420.960938 900.945312 " clip-rule="nonzero"></path></clipPath><clipPath id="216efb3c6d"><path d="M 0.878906 0.519531 L 662.558594 0.519531 L 662.558594 403 L 0.878906 403 Z M 0.878906 0.519531 " clip-rule="nonzero"></path></clipPath><clipPath id="90c8e60b74"><rect x="0" width="663" y="0" height="403"></rect></clipPath><clipPath id="e56183ac6b"><path d="M 266 415 L 576 415 L 576 607.480469 L 266 607.480469 Z M 266 415 " clip-rule="nonzero"></path></clipPath><clipPath id="a4b4e5840f"><rect x="0" width="310" y="0" height="193"></rect></clipPath><clipPath id="31a6c1bdb6"><rect x="0" width="663" y="0" height="608"></rect></clipPath><clipPath id="11ff684df6"><path d="M 363.765625 335.941406 L 1191.765625 335.941406 L 1191.765625 1163.941406 L 363.765625 1163.941406 Z M 363.765625 335.941406 " clip-rule="nonzero"></path></clipPath></defs><rect x="-150" width="1800" fill="#ffffff" y="-149.999993" height="1799.99992" fill-opacity="1"></rect><rect x="-150" width="1800" fill="#1a6281" y="-149.999993" height="1799.99992" fill-opacity="1"></rect><g clip-path="url(#f2f3179427)"><g clip-path="url(#d12147e308)"><g clip-path="url(#97061a2a0a)"><path fill="#9f86bc" d="M 692.917969 936.484375 C 659.46875 946.253906 627.261719 959.695312 595.855469 974.714844 C 600.328125 988.515625 604.847656 1002.300781 609.445312 1016.058594 C 616.121094 1036.144531 622.3125 1056.378906 629.167969 1076.398438 C 634.117188 1091.285156 612.089844 1099.285156 606.46875 1084.4375 C 595.625 1051.121094 585.066406 1017.710938 574.246094 984.382812 C 551.238281 994.5625 528.210938 1004.714844 506.160156 1016.914062 C 496.730469 1021.433594 487.855469 1028.539062 477.355469 1030.109375 C 477.359375 1030.105469 477.359375 1030.097656 477.359375 1030.097656 C 467.125 1031.125 462.050781 1016.882812 470.636719 1011.140625 C 489.949219 999.914062 509.492188 988.941406 529.59375 979.136719 C 542.082031 973.566406 554.511719 967.800781 566.941406 962.035156 C 566.742188 961.425781 566.542969 960.816406 566.34375 960.210938 C 558.699219 932.265625 548.257812 904.835938 543.632812 876.1875 C 543.097656 871.566406 542.425781 866.539062 544.191406 862.117188 C 545.929688 856.683594 553.378906 854.976562 557.179688 859.324219 C 561.320312 863.769531 562.617188 870.105469 564.515625 875.71875 C 572.464844 901.1875 580.4375 926.636719 588.558594 952.046875 C 620.007812 937.640625 651.746094 923.90625 684.917969 913.917969 C 699.804688 908.980469 707.691406 931.035156 692.917969 936.484375 Z M 692.917969 936.484375 " fill-opacity="1" fill-rule="nonzero"></path></g></g></g><g transform="matrix(1, 0, 0, 1, 440, 503)"><g clip-path="url(#31a6c1bdb6)"><g clip-path="url(#216efb3c6d)"><g transform="matrix(1, 0, 0, 1, 0, 0.000000000000113687)"><g clip-path="url(#90c8e60b74)"><g fill="#d5d6bc" fill-opacity="1"><g transform="translate(50.305693, 190.501659)"><g><path d="M 49.984375 1.875 L -5.875 1.875 L -5.875 -141.828125 L 49.761719 -141.828125 L 78.3125 -101.042969 L 76.773438 -99.96875 L 75.238281 -101.042969 L 103.789062 -141.828125 L 159.222656 -141.828125 L 159.222656 1.875 L 101.691406 1.875 L 101.691406 -31.300781 L 105.503906 -63.796875 L 107.363281 -63.578125 L 108.9375 -62.558594 L 87.390625 -29.316406 L 66.160156 -29.316406 L 44.613281 -62.558594 L 46.183594 -63.578125 L 48.046875 -63.796875 L 51.859375 -31.300781 L 51.859375 1.875 Z M 49.984375 -1.875 L 49.984375 0 L 48.109375 0 L 48.109375 -31.191406 L 49.984375 -31.191406 L 48.121094 -30.972656 L 44.324219 -63.359375 L 47.757812 -64.597656 L 68.75 -32.210938 L 67.179688 -31.191406 L 67.179688 -33.0625 L 86.371094 -33.0625 L 86.371094 -31.191406 L 84.800781 -32.210938 L 105.792969 -64.597656 L 109.226562 -63.359375 L 105.429688 -30.972656 L 103.566406 -31.191406 L 105.441406 -31.191406 L 105.441406 0 L 103.566406 0 L 103.566406 -1.875 L 157.347656 -1.875 L 157.347656 0 L 155.472656 0 L 155.472656 -139.953125 L 157.347656 -139.953125 L 157.347656 -138.078125 L 104.765625 -138.078125 L 104.765625 -139.953125 L 106.300781 -138.878906 L 76.773438 -96.699219 L 47.25 -138.878906 L 48.785156 -139.953125 L 48.785156 -138.078125 L -4 -138.078125 L -4 -139.953125 L -2.125 -139.953125 L -2.125 0 L -4 0 L -4 -1.875 Z M 49.984375 -1.875 "></path></g></g></g><g fill="#d5d6bc" fill-opacity="1"><g transform="translate(215.651519, 190.501659)"><g><path d="M 57.339844 -15.542969 L 50.886719 1.875 L -8.871094 1.875 L -8.871094 -5.757812 L 45.710938 -143.429688 L 110.039062 -143.429688 L 164.621094 -5.757812 L 164.621094 1.875 L 104.875 1.875 L 98.21875 -15.523438 L 99.96875 -16.195312 L 99.96875 -14.320312 L 55.582031 -14.320312 L 55.582031 -16.195312 Z M 54.277344 -18.070312 L 101.257812 -18.070312 L 107.917969 -0.671875 L 106.164062 0 L 106.164062 -1.875 L 162.746094 -1.875 L 162.746094 0 L 160.871094 0 L 160.871094 -5.398438 L 162.746094 -5.398438 L 161.003906 -4.707031 L 107.023438 -140.863281 L 108.765625 -141.554688 L 108.765625 -139.679688 L 46.984375 -139.679688 L 46.984375 -141.554688 L 48.726562 -140.863281 L -5.253906 -4.707031 L -6.996094 -5.398438 L -5.125 -5.398438 L -5.125 0 L -6.996094 0 L -6.996094 -1.875 L 49.582031 -1.875 L 49.582031 0 L 47.824219 -0.652344 L 53.824219 -16.847656 Z M 84.347656 -51.949219 L 75.953125 -87.136719 L 77.773438 -87.570312 L 79.601562 -87.144531 L 71.402344 -51.957031 L 69.578125 -52.382812 L 69.578125 -54.257812 L 86.171875 -54.257812 L 86.171875 -52.382812 Z M 88.546875 -50.507812 L 67.214844 -50.507812 L 75.949219 -87.996094 L 79.597656 -88.007812 L 87.996094 -52.816406 Z M 88.546875 -50.507812 "></path></g></g></g><g fill="#d5d6bc" fill-opacity="1"><g transform="translate(366.002221, 190.501659)"><g><path d="M 25.191406 -94.292969 L -6.472656 -94.292969 L -6.472656 -141.828125 L 111.4375 -141.828125 L 111.4375 -94.292969 L 79.773438 -94.292969 L 79.773438 -96.167969 L 81.648438 -96.167969 L 81.648438 1.875 L 23.316406 1.875 L 23.316406 -96.167969 L 25.191406 -96.167969 Z M 27.066406 -98.042969 L 27.066406 0 L 25.191406 0 L 25.191406 -1.875 L 79.773438 -1.875 L 79.773438 0 L 77.898438 0 L 77.898438 -98.042969 L 109.5625 -98.042969 L 109.5625 -96.167969 L 107.691406 -96.167969 L 107.691406 -139.953125 L 109.5625 -139.953125 L 109.5625 -138.078125 L -4.597656 -138.078125 L -4.597656 -139.953125 L -2.722656 -139.953125 L -2.722656 -96.167969 L -4.597656 -96.167969 L -4.597656 -98.042969 Z M 27.066406 -98.042969 "></path></g></g></g><g fill="#d5d6bc" fill-opacity="1"><g transform="translate(483.36373, 190.501659)"><g><path d="M 52.457031 -139.953125 L 52.457031 -92.96875 L 50.582031 -92.96875 L 50.582031 -94.84375 L 75.574219 -94.84375 L 75.574219 -92.96875 L 73.699219 -92.96875 L 73.699219 -141.828125 L 131.832031 -141.828125 L 131.832031 1.875 L 73.699219 1.875 L 73.699219 -48.785156 L 75.574219 -48.785156 L 75.574219 -46.910156 L 50.582031 -46.910156 L 50.582031 -48.785156 L 52.457031 -48.785156 L 52.457031 1.875 L -5.875 1.875 L -5.875 -141.828125 L 52.457031 -141.828125 Z M 48.710938 -139.953125 L 50.582031 -139.953125 L 50.582031 -138.078125 L -4 -138.078125 L -4 -139.953125 L -2.125 -139.953125 L -2.125 0 L -4 0 L -4 -1.875 L 50.582031 -1.875 L 50.582031 0 L 48.710938 0 L 48.710938 -50.660156 L 77.449219 -50.660156 L 77.449219 0 L 75.574219 0 L 75.574219 -1.875 L 129.957031 -1.875 L 129.957031 0 L 128.082031 0 L 128.082031 -139.953125 L 129.957031 -139.953125 L 129.957031 -138.078125 L 75.574219 -138.078125 L 75.574219 -139.953125 L 77.449219 -139.953125 L 77.449219 -91.09375 L 48.710938 -91.09375 Z M 48.710938 -139.953125 "></path></g></g></g><g fill="#d5d6bc" fill-opacity="1"><g transform="translate(10.133822, 351.001646)"><g><path d="M -5.996094 0 L -5.996094 -146.070312 L 57.0625 -146.070312 C 66.121094 -146.070312 74.867188 -145.164062 83.308594 -143.351562 C 91.832031 -141.519531 99.449219 -138.484375 106.160156 -134.246094 C 112.964844 -129.949219 118.335938 -124.082031 122.265625 -116.644531 C 126.1875 -109.230469 128.148438 -100.011719 128.148438 -88.988281 C 128.148438 -77.964844 126.152344 -68.742188 122.15625 -61.320312 C 118.160156 -53.894531 112.761719 -48 105.96875 -43.636719 C 99.253906 -39.328125 91.667969 -36.257812 83.207031 -34.421875 C 74.835938 -32.609375 66.121094 -31.703125 57.0625 -31.703125 L 52.117188 -31.703125 L 52.117188 -33.578125 L 53.992188 -33.578125 L 53.992188 1.875 L -5.996094 1.875 Z M -2.246094 0 L -4.121094 0 L -4.121094 -1.875 L 52.117188 -1.875 L 52.117188 0 L 50.242188 0 L 50.242188 -35.453125 L 57.0625 -35.453125 C 65.851562 -35.453125 74.304688 -36.332031 82.414062 -38.085938 C 90.433594 -39.824219 97.609375 -42.726562 103.941406 -46.792969 C 110.191406 -50.808594 115.164062 -56.242188 118.855469 -63.097656 C 122.550781 -69.964844 124.402344 -78.59375 124.402344 -88.988281 C 124.402344 -99.390625 122.585938 -108.027344 118.953125 -114.894531 C 115.332031 -121.738281 110.402344 -127.132812 104.160156 -131.074219 C 97.824219 -135.078125 90.609375 -137.949219 82.519531 -139.6875 C 74.339844 -141.445312 65.855469 -142.320312 57.0625 -142.320312 L -4.121094 -142.320312 L -4.121094 -144.195312 L -2.246094 -144.195312 Z M 58.242188 -78.296875 C 62.394531 -78.417969 65.390625 -79.460938 67.230469 -81.417969 C 69.089844 -83.390625 70.019531 -85.847656 70.019531 -88.785156 C 70.019531 -91.710938 69.09375 -94.125 67.25 -96.027344 C 65.421875 -97.914062 62.4375 -98.855469 58.296875 -98.855469 L 51.5 -98.855469 L 51.5 -100.730469 L 53.375 -100.730469 L 53.375 -76.425781 L 51.5 -76.425781 L 51.5 -78.296875 L 58.296875 -78.296875 L 58.296875 -76.425781 Z M 58.324219 -74.550781 L 49.625 -74.550781 L 49.625 -102.605469 L 58.296875 -102.605469 C 63.496094 -102.605469 67.375 -101.28125 69.941406 -98.636719 C 72.492188 -96.007812 73.765625 -92.722656 73.765625 -88.785156 C 73.765625 -84.855469 72.5 -81.542969 69.960938 -78.847656 C 67.410156 -76.136719 63.539062 -74.703125 58.351562 -74.550781 Z M 58.324219 -74.550781 "></path></g></g></g><g fill="#d5d6bc" fill-opacity="1"><g transform="translate(133.112513, 351.001646)"><g><path d="M -7.023438 -72.511719 C -7.023438 -85.425781 -4.734375 -96.746094 -0.152344 -106.472656 C 4.429688 -116.195312 10.53125 -124.269531 18.15625 -130.695312 C 25.75 -137.09375 34.296875 -141.914062 43.789062 -145.148438 C 53.253906 -148.371094 62.964844 -149.984375 72.921875 -149.984375 C 82.878906 -149.984375 92.589844 -148.371094 102.058594 -145.148438 C 111.550781 -141.914062 120.09375 -137.09375 127.6875 -130.695312 C 135.3125 -124.269531 141.414062 -116.195312 145.996094 -106.472656 C 150.578125 -96.746094 152.867188 -85.425781 152.867188 -72.511719 C 152.867188 -59.730469 150.574219 -48.542969 145.992188 -38.949219 C 141.410156 -29.363281 135.273438 -21.359375 127.578125 -14.9375 C 119.917969 -8.539062 111.339844 -3.726562 101.851562 -0.492188 C 92.386719 2.734375 82.671875 4.347656 72.714844 4.347656 C 62.761719 4.347656 53.085938 2.769531 43.691406 -0.386719 C 34.269531 -3.550781 25.722656 -8.332031 18.058594 -14.730469 C 10.359375 -21.160156 4.257812 -29.203125 -0.257812 -38.859375 C -4.769531 -48.519531 -7.023438 -59.734375 -7.023438 -72.511719 Z M -3.277344 -72.511719 C -3.277344 -60.289062 -1.136719 -49.601562 3.140625 -40.449219 C 7.417969 -31.292969 13.191406 -23.679688 20.460938 -17.609375 C 27.765625 -11.511719 35.90625 -6.953125 44.886719 -3.941406 C 53.894531 -0.914062 63.171875 0.597656 72.714844 0.597656 C 82.257812 0.597656 91.566406 -0.949219 100.640625 -4.039062 C 109.691406 -7.125 117.871094 -11.714844 125.175781 -17.816406 C 132.453125 -23.890625 138.261719 -31.472656 142.609375 -40.566406 C 146.949219 -49.648438 149.121094 -60.296875 149.121094 -72.511719 C 149.121094 -84.863281 146.949219 -95.652344 142.605469 -104.875 C 138.257812 -114.105469 132.480469 -121.757812 125.273438 -127.828125 C 118.035156 -133.925781 109.894531 -138.515625 100.847656 -141.597656 C 91.773438 -144.691406 82.464844 -146.234375 72.921875 -146.234375 C 63.378906 -146.234375 54.070312 -144.691406 44.996094 -141.597656 C 35.949219 -138.515625 27.808594 -133.925781 20.570312 -127.828125 C 13.363281 -121.757812 7.585938 -114.105469 3.242188 -104.875 C -1.101562 -95.652344 -3.277344 -84.863281 -3.277344 -72.511719 Z M 52.34375 -72.714844 C 52.34375 -67.554688 53.324219 -63.265625 55.289062 -59.847656 C 57.238281 -56.449219 59.773438 -53.90625 62.894531 -52.222656 C 66.050781 -50.515625 69.253906 -49.664062 72.511719 -49.664062 C 77.65625 -49.664062 82.320312 -51.5625 86.492188 -55.359375 C 90.625 -59.113281 92.753906 -64.910156 92.882812 -72.746094 C 92.882812 -78.023438 91.902344 -82.371094 89.9375 -85.789062 C 87.984375 -89.195312 85.476562 -91.738281 82.421875 -93.425781 C 79.335938 -95.125 76.101562 -95.972656 72.714844 -95.972656 C 67.699219 -95.972656 63.070312 -94.074219 58.824219 -90.269531 C 54.632812 -86.515625 52.472656 -80.652344 52.34375 -72.6875 Z M 48.59375 -72.746094 C 48.742188 -81.808594 51.316406 -88.578125 56.324219 -93.0625 C 61.28125 -97.503906 66.746094 -99.722656 72.714844 -99.722656 C 76.746094 -99.722656 80.582031 -98.71875 84.230469 -96.707031 C 87.902344 -94.6875 90.886719 -91.667969 93.191406 -87.65625 C 95.484375 -83.660156 96.632812 -78.667969 96.632812 -72.683594 C 96.484375 -63.769531 93.945312 -57.066406 89.015625 -52.582031 C 84.125 -48.140625 78.625 -45.917969 72.511719 -45.917969 C 68.625 -45.917969 64.824219 -46.917969 61.113281 -48.921875 C 57.367188 -50.945312 54.339844 -53.964844 52.035156 -57.980469 C 49.742188 -61.976562 48.59375 -66.890625 48.59375 -72.714844 Z M 48.59375 -72.746094 "></path></g></g></g><g fill="#d5d6bc" fill-opacity="1"><g transform="translate(290.6983, 351.001646)"><g><path d="M 99.289062 -100.503906 L 76.425781 -100.503906 L 76.425781 -102.378906 L 78.296875 -102.378906 L 78.296875 -41.199219 L 76.425781 -41.199219 L 76.425781 -43.074219 L 101.164062 -43.074219 L 101.164062 1.875 L -5.375 1.875 L -5.375 -43.074219 L 19.363281 -43.074219 L 19.363281 -41.199219 L 17.488281 -41.199219 L 17.488281 -102.378906 L 19.363281 -102.378906 L 19.363281 -100.503906 L -5.375 -100.503906 L -5.375 -146.070312 L 101.164062 -146.070312 L 101.164062 -100.503906 Z M 99.289062 -104.253906 L 99.289062 -102.378906 L 97.414062 -102.378906 L 97.414062 -144.195312 L 99.289062 -144.195312 L 99.289062 -142.320312 L -3.5 -142.320312 L -3.5 -144.195312 L -1.628906 -144.195312 L -1.628906 -102.378906 L -3.5 -102.378906 L -3.5 -104.253906 L 21.238281 -104.253906 L 21.238281 -39.324219 L -3.5 -39.324219 L -3.5 -41.199219 L -1.628906 -41.199219 L -1.628906 0 L -3.5 0 L -3.5 -1.875 L 99.289062 -1.875 L 99.289062 0 L 97.414062 0 L 97.414062 -41.199219 L 99.289062 -41.199219 L 99.289062 -39.324219 L 74.550781 -39.324219 L 74.550781 -104.253906 Z M 99.289062 -104.253906 "></path></g></g></g><g fill="#d5d6bc" fill-opacity="1"><g transform="translate(397.609408, 351.001646)"><g><path d="M 52.117188 1.875 L -5.996094 1.875 L -5.996094 -146.070312 L 43.824219 -146.070312 L 83.933594 -88.621094 L 82.398438 -87.546875 L 80.535156 -87.332031 L 77.023438 -117.722656 L 77.023438 -146.070312 L 136.59375 -146.070312 L 136.59375 1.875 L 86.78125 1.875 L 46.257812 -55.777344 L 47.789062 -56.855469 L 49.648438 -57.105469 L 53.992188 -25.050781 L 53.992188 1.875 Z M 52.117188 -1.875 L 52.117188 0 L 50.242188 0 L 50.242188 -24.925781 L 52.117188 -24.925781 L 50.257812 -24.671875 L 45.933594 -56.601562 L 49.324219 -57.933594 L 89.289062 -1.078125 L 87.753906 0 L 87.753906 -1.875 L 134.722656 -1.875 L 134.722656 0 L 132.847656 0 L 132.847656 -144.195312 L 134.722656 -144.195312 L 134.722656 -142.320312 L 78.894531 -142.320312 L 78.894531 -144.195312 L 80.769531 -144.195312 L 80.769531 -117.828125 L 78.894531 -117.828125 L 80.757812 -118.042969 L 84.261719 -87.761719 L 80.859375 -86.476562 L 41.308594 -143.125 L 42.847656 -144.195312 L 42.847656 -142.320312 L -4.121094 -142.320312 L -4.121094 -144.195312 L -2.246094 -144.195312 L -2.246094 0 L -4.121094 0 L -4.121094 -1.875 Z M 52.117188 -1.875 "></path></g></g></g><g fill="#d5d6bc" fill-opacity="1"><g transform="translate(540.569589, 351.001646)"><g><path d="M 25.957031 -97.210938 L -6.613281 -97.210938 L -6.613281 -146.070312 L 114.757812 -146.070312 L 114.757812 -97.210938 L 82.191406 -97.210938 L 82.191406 -99.082031 L 84.066406 -99.082031 L 84.066406 1.875 L 24.082031 1.875 L 24.082031 -99.082031 L 25.957031 -99.082031 Z M 27.828125 -100.957031 L 27.828125 0 L 25.957031 0 L 25.957031 -1.875 L 82.191406 -1.875 L 82.191406 0 L 80.316406 0 L 80.316406 -100.957031 L 112.886719 -100.957031 L 112.886719 -99.082031 L 111.011719 -99.082031 L 111.011719 -144.195312 L 112.886719 -144.195312 L 112.886719 -142.320312 L -4.738281 -142.320312 L -4.738281 -144.195312 L -2.863281 -144.195312 L -2.863281 -99.082031 L -4.738281 -99.082031 L -4.738281 -100.957031 Z M 27.828125 -100.957031 "></path></g></g></g></g></g></g><g clip-path="url(#e56183ac6b)"><g transform="matrix(1, 0, 0, 1, 266, 415)"><g clip-path="url(#a4b4e5840f)"><g fill="#9f86bc" fill-opacity="1"><g transform="translate(16.164474, 144.918395)"><g><path d="M 37.28125 -68.28125 C 37.851562 -66.84375 38.25 -65.414062 38.46875 -64 C 38.5625 -63.375 38.617188 -62.753906 38.640625 -62.140625 C 38.742188 -60.078125 38.492188 -58.1875 37.890625 -56.46875 C 37.285156 -54.75 36.363281 -53.289062 35.125 -52.09375 C 33.882812 -50.894531 32.316406 -50.148438 30.421875 -49.859375 C 29.640625 -50.015625 29.148438 -50.390625 28.953125 -50.984375 C 28.753906 -51.585938 28.628906 -52.054688 28.578125 -52.390625 C 28.554688 -53.015625 28.675781 -53.484375 28.9375 -53.796875 C 29.207031 -54.109375 29.535156 -54.378906 29.921875 -54.609375 C 30.304688 -54.835938 30.703125 -55.070312 31.109375 -55.3125 C 31.523438 -55.550781 31.863281 -55.90625 32.125 -56.375 C 32.375 -56.675781 32.601562 -57.140625 32.8125 -57.765625 C 33.03125 -58.390625 33.210938 -59.023438 33.359375 -59.671875 C 33.503906 -60.316406 33.597656 -60.953125 33.640625 -61.578125 C 33.679688 -62.210938 33.664062 -62.769531 33.59375 -63.25 C 33.351562 -64.382812 32.691406 -65.40625 31.609375 -66.3125 C 30.535156 -67.21875 29.269531 -67.992188 27.8125 -68.640625 C 26.363281 -69.285156 24.835938 -69.742188 23.234375 -70.015625 C 21.640625 -70.296875 20.222656 -70.414062 18.984375 -70.375 C 18.429688 -70.351562 17.890625 -70.300781 17.359375 -70.21875 C 15.859375 -69.988281 14.46875 -69.566406 13.1875 -68.953125 C 11.363281 -68.128906 9.859375 -67.035156 8.671875 -65.671875 C 7.492188 -64.316406 6.703125 -62.738281 6.296875 -60.9375 C 6.035156 -59.863281 5.988281 -58.785156 6.15625 -57.703125 C 6.289062 -56.828125 6.566406 -55.9375 6.984375 -55.03125 C 9.128906 -52.300781 11.601562 -50.023438 14.40625 -48.203125 C 17.21875 -46.378906 20.101562 -44.632812 23.0625 -42.96875 C 26.03125 -41.3125 28.914062 -39.570312 31.71875 -37.75 C 34.519531 -35.925781 37.023438 -33.691406 39.234375 -31.046875 C 40.316406 -29.347656 41.289062 -27.382812 42.15625 -25.15625 C 43.019531 -22.925781 43.628906 -20.664062 43.984375 -18.375 C 44.347656 -15.988281 44.3125 -13.707031 43.875 -11.53125 C 43.445312 -9.351562 42.488281 -7.488281 41 -5.9375 C 39.851562 -4.789062 38.472656 -3.695312 36.859375 -2.65625 C 35.253906 -1.625 33.578125 -0.695312 31.828125 0.125 C 30.085938 0.945312 28.359375 1.628906 26.640625 2.171875 C 25.171875 2.597656 23.863281 2.894531 22.71875 3.0625 L 21.796875 3.21875 C 20.578125 3.332031 19.273438 3.164062 17.890625 2.71875 C 16.503906 2.28125 15.175781 1.65625 13.90625 0.84375 C 12.632812 0.03125 11.421875 -0.835938 10.265625 -1.765625 C 9.117188 -2.703125 8.175781 -3.566406 7.4375 -4.359375 C 6.863281 -4.960938 6.242188 -5.492188 5.578125 -5.953125 C 4.921875 -6.410156 4.488281 -6.863281 4.28125 -7.3125 C 3.726562 -8.332031 3.367188 -9.382812 3.203125 -10.46875 C 3.128906 -10.9375 3.085938 -11.382812 3.078125 -11.8125 C 3.046875 -13.394531 3.28125 -14.929688 3.78125 -16.421875 C 4.28125 -17.921875 4.929688 -19.316406 5.734375 -20.609375 C 6.546875 -21.910156 7.398438 -23.019531 8.296875 -23.9375 C 10.660156 -23.945312 12.070312 -23.535156 12.53125 -22.703125 C 12.632812 -22.441406 12.707031 -22.179688 12.75 -21.921875 C 12.851562 -21.234375 12.726562 -20.484375 12.375 -19.671875 C 11.882812 -18.410156 11.195312 -17.140625 10.3125 -15.859375 C 9.4375 -14.585938 8.894531 -13.484375 8.6875 -12.546875 C 9.195312 -11.035156 9.859375 -9.769531 10.671875 -8.75 C 11.484375 -7.726562 12.414062 -6.847656 13.46875 -6.109375 C 14.519531 -5.367188 15.65625 -4.742188 16.875 -4.234375 C 18.09375 -3.734375 19.328125 -3.265625 20.578125 -2.828125 C 21.535156 -2.910156 22.421875 -3.007812 23.234375 -3.125 C 24.179688 -3.269531 25.082031 -3.476562 25.9375 -3.75 C 27.394531 -4.1875 28.726562 -4.753906 29.9375 -5.453125 C 31.144531 -6.160156 32.257812 -6.921875 33.28125 -7.734375 C 34.300781 -8.546875 35.367188 -9.347656 36.484375 -10.140625 C 37.804688 -12.421875 38.394531 -14.726562 38.25 -17.0625 L 38.0625 -18.28125 C 37.769531 -20.175781 37.140625 -22.023438 36.171875 -23.828125 C 35.015625 -25.929688 33.554688 -27.875 31.796875 -29.65625 C 30.035156 -31.4375 28.3125 -32.882812 26.625 -34 C 25.925781 -34.457031 25.238281 -34.976562 24.5625 -35.5625 C 23.882812 -36.144531 23.242188 -36.566406 22.640625 -36.828125 C 20.234375 -38.117188 17.800781 -39.320312 15.34375 -40.4375 C 12.882812 -41.5625 10.632812 -42.90625 8.59375 -44.46875 C 7.488281 -45.332031 6.347656 -46.4375 5.171875 -47.78125 C 3.992188 -49.125 2.945312 -50.625 2.03125 -52.28125 C 1.125 -53.945312 0.492188 -55.753906 0.140625 -57.703125 L 0.078125 -58.125 C -0.203125 -59.945312 -0.0703125 -61.800781 0.46875 -63.6875 C 0.78125 -64.78125 1.285156 -65.742188 1.984375 -66.578125 C 2.691406 -67.410156 3.488281 -68.207031 4.375 -68.96875 C 5.269531 -69.726562 6.160156 -70.488281 7.046875 -71.25 C 7.941406 -72.007812 8.734375 -72.859375 9.421875 -73.796875 C 11.585938 -74.535156 13.617188 -75.050781 15.515625 -75.34375 C 16.398438 -75.476562 17.25 -75.578125 18.0625 -75.640625 C 20.757812 -75.765625 23.28125 -75.535156 25.625 -74.953125 C 27.96875 -74.378906 30.09375 -73.492188 32 -72.296875 C 33.90625 -71.109375 35.664062 -69.769531 37.28125 -68.28125 Z M 37.28125 -68.28125 "></path></g></g></g><g fill="#9f86bc" fill-opacity="1"><g transform="translate(62.749198, 137.803996)"><g><path d="M 32.28125 -58.25 C 33.425781 -57.050781 34.054688 -56.078125 34.171875 -55.328125 L 34.203125 -55.125 C 34.179688 -54.289062 33.773438 -53.632812 32.984375 -53.15625 C 32.191406 -52.6875 31.140625 -52.335938 29.828125 -52.109375 C 28.515625 -51.890625 27.144531 -51.671875 25.71875 -51.453125 C 24.226562 -51.222656 22.847656 -50.957031 21.578125 -50.65625 C 20.304688 -50.351562 19.332031 -49.90625 18.65625 -49.3125 C 18.320312 -45.65625 18.445312 -41.894531 19.03125 -38.03125 C 19 -37.757812 19.003906 -37.484375 19.046875 -37.203125 C 19.597656 -33.617188 20.414062 -30.109375 21.5 -26.671875 C 22.550781 -22.953125 23.789062 -19.46875 25.21875 -16.21875 C 26.65625 -12.976562 28.109375 -10.1875 29.578125 -7.84375 C 30.492188 -7.289062 31.367188 -6.4375 32.203125 -5.28125 C 33.035156 -4.125 34.179688 -3.101562 35.640625 -2.21875 C 36.242188 -1.820312 36.859375 -1.5 37.484375 -1.25 C 38.117188 -1 38.703125 -0.722656 39.234375 -0.421875 C 39.765625 -0.117188 40.207031 0.242188 40.5625 0.671875 C 40.8125 1.054688 40.972656 1.515625 41.046875 2.046875 L 41.125 2.5625 C 41.21875 3.582031 40.898438 4.425781 40.171875 5.09375 C 39.566406 5.664062 38.894531 6.007812 38.15625 6.125 L 37.53125 6.21875 C 36.90625 6.164062 36.410156 5.875 36.046875 5.34375 C 35.691406 4.8125 35.019531 4.242188 34.03125 3.640625 C 33.632812 3.347656 33.132812 3.160156 32.53125 3.078125 C 31.925781 2.992188 31.484375 2.878906 31.203125 2.734375 C 30.046875 2.003906 28.941406 1.046875 27.890625 -0.140625 C 26.847656 -1.335938 25.859375 -2.59375 24.921875 -3.90625 C 23.992188 -5.21875 23.128906 -6.570312 22.328125 -7.96875 C 21.523438 -9.375 20.816406 -10.726562 20.203125 -12.03125 C 19.429688 -13.507812 18.660156 -15.160156 17.890625 -16.984375 C 17.128906 -18.804688 16.398438 -20.84375 15.703125 -23.09375 C 15.390625 -24.226562 15.148438 -25.363281 14.984375 -26.5 C 14.867188 -27.257812 14.789062 -27.984375 14.75 -28.671875 C 14.644531 -29.828125 14.5 -31.015625 14.3125 -32.234375 L 14.046875 -33.96875 C 13.679688 -35.851562 13.265625 -37.898438 12.796875 -40.109375 C 12.628906 -40.710938 12.492188 -41.351562 12.390625 -42.03125 C 12.148438 -43.582031 12.046875 -45.191406 12.078125 -46.859375 C 11.859375 -46.890625 11.617188 -46.882812 11.359375 -46.84375 C 10.597656 -46.726562 9.820312 -46.335938 9.03125 -45.671875 C 7.914062 -44.804688 6.765625 -43.847656 5.578125 -42.796875 C 4.390625 -41.742188 3.203125 -40.78125 2.015625 -39.90625 C 0.941406 -39.195312 -0.0664062 -38.769531 -1.015625 -38.625 L -1.609375 -38.53125 C -2.578125 -38.519531 -3.328125 -38.859375 -3.859375 -39.546875 C -4.347656 -40.085938 -4.640625 -40.664062 -4.734375 -41.28125 C -4.753906 -41.40625 -4.75 -41.578125 -4.71875 -41.796875 C -4.757812 -42.546875 -4.453125 -43.253906 -3.796875 -43.921875 C -3.390625 -44.390625 -2.742188 -44.691406 -1.859375 -44.828125 C -1.515625 -44.878906 -1.171875 -44.898438 -0.828125 -44.890625 C 0.835938 -46.734375 2.800781 -48.28125 5.0625 -49.53125 C 7.332031 -50.78125 9.695312 -51.976562 12.15625 -53.125 C 12.082031 -55.882812 12.15625 -58.90625 12.375 -62.1875 C 12.601562 -65.476562 12.765625 -68.648438 12.859375 -71.703125 C 12.878906 -72.484375 12.832031 -73.242188 12.71875 -73.984375 C 12.613281 -74.660156 12.539062 -75.328125 12.5 -75.984375 C 12.46875 -76.640625 12.535156 -77.21875 12.703125 -77.71875 C 12.878906 -78.226562 13.242188 -78.703125 13.796875 -79.140625 C 14.160156 -79.054688 14.578125 -79.050781 15.046875 -79.125 C 15.453125 -79.1875 15.863281 -79.210938 16.28125 -79.203125 C 16.695312 -79.191406 17.085938 -79.113281 17.453125 -78.96875 C 17.828125 -78.820312 18.15625 -78.523438 18.4375 -78.078125 C 18.289062 -74.941406 18.1875 -71.410156 18.125 -67.484375 C 18.0625 -63.554688 18.148438 -59.671875 18.390625 -55.828125 C 19.222656 -55.890625 20.046875 -55.984375 20.859375 -56.109375 C 22.273438 -56.328125 23.78125 -56.660156 25.375 -57.109375 C 26.925781 -57.484375 28.410156 -57.773438 29.828125 -57.984375 C 30.640625 -58.109375 31.457031 -58.195312 32.28125 -58.25 Z M 32.28125 -58.25 "></path></g></g></g><g fill="#9f86bc" fill-opacity="1"><g transform="translate(101.714666, 131.853206)"><g><path d="M 50.8125 -39.671875 L 50.984375 -38.5625 C 51.210938 -37.0625 51.328125 -35.625 51.328125 -34.25 C 51.347656 -33.207031 51.421875 -32.28125 51.546875 -31.46875 C 51.640625 -30.863281 51.757812 -30.289062 51.90625 -29.75 C 51.625 -26.101562 50.878906 -22.5625 49.671875 -19.125 C 48.472656 -15.6875 46.832031 -12.609375 44.75 -9.890625 C 42.664062 -7.179688 40.128906 -4.976562 37.140625 -3.28125 C 34.960938 -2.050781 32.585938 -1.238281 30.015625 -0.84375 C 29.003906 -0.6875 27.941406 -0.59375 26.828125 -0.5625 C 23.242188 -0.425781 20.082031 -1.050781 17.34375 -2.4375 C 14.601562 -3.820312 12.21875 -5.742188 10.1875 -8.203125 C 8.15625 -10.660156 6.460938 -13.570312 5.109375 -16.9375 C 3.765625 -20.300781 2.703125 -23.867188 1.921875 -27.640625 C 1.671875 -28.785156 1.445312 -30 1.25 -31.28125 C 1.050781 -32.570312 0.878906 -33.929688 0.734375 -35.359375 C 0.597656 -36.722656 0.421875 -38.113281 0.203125 -39.53125 C -0.00390625 -40.894531 -0.242188 -42.242188 -0.515625 -43.578125 C -0.773438 -44.796875 -1.148438 -46.09375 -1.640625 -47.46875 C -1.972656 -48.25 -2.1875 -48.945312 -2.28125 -49.5625 C -2.332031 -49.957031 -2.347656 -50.300781 -2.328125 -50.59375 C -2.234375 -51.4375 -1.960938 -52.097656 -1.515625 -52.578125 C -1.078125 -53.054688 -0.523438 -53.378906 0.140625 -53.546875 L 0.453125 -53.59375 C 0.992188 -53.675781 1.550781 -53.660156 2.125 -53.546875 C 2.78125 -53.304688 3.429688 -52.882812 4.078125 -52.28125 C 4.472656 -50.125 4.84375 -47.925781 5.1875 -45.6875 C 5.53125 -43.457031 5.835938 -41.21875 6.109375 -38.96875 C 6.234375 -37.675781 6.382812 -36.421875 6.5625 -35.203125 C 7.039062 -32.085938 7.644531 -29.097656 8.375 -26.234375 C 9.332031 -22.210938 10.679688 -18.585938 12.421875 -15.359375 C 14.160156 -12.128906 16.625 -9.617188 19.8125 -7.828125 C 20.71875 -7.328125 21.71875 -6.988281 22.8125 -6.8125 C 23.914062 -6.632812 25.050781 -6.5625 26.21875 -6.59375 C 27.394531 -6.632812 28.609375 -6.734375 29.859375 -6.890625 C 31.117188 -7.054688 32.328125 -7.226562 33.484375 -7.40625 C 36.929688 -9.3125 39.550781 -11.769531 41.34375 -14.78125 C 43.144531 -17.800781 44.640625 -21.066406 45.828125 -24.578125 C 45.878906 -27.078125 45.875 -29.410156 45.8125 -31.578125 C 45.75 -33.753906 45.628906 -35.90625 45.453125 -38.03125 L 44.484375 -44.4375 C 44.015625 -46.5 43.453125 -48.769531 42.796875 -51.25 C 42.234375 -51.78125 41.742188 -52.5 41.328125 -53.40625 C 41.015625 -54.050781 40.800781 -54.75 40.6875 -55.5 L 40.609375 -56 C 40.554688 -56.894531 40.675781 -57.707031 40.96875 -58.4375 C 41.269531 -59.175781 41.890625 -59.6875 42.828125 -59.96875 L 43.234375 -60.03125 C 44.046875 -60.15625 44.679688 -60.082031 45.140625 -59.8125 C 45.671875 -59.46875 46.085938 -58.976562 46.390625 -58.34375 C 46.703125 -57.75 46.910156 -57.082031 47.015625 -56.34375 L 47.0625 -56.046875 C 47.125 -55.160156 47.175781 -54.367188 47.21875 -53.671875 C 47.351562 -52.785156 47.582031 -51.726562 47.90625 -50.5 C 48.226562 -49.269531 48.578125 -48.007812 48.953125 -46.71875 C 49.328125 -45.425781 49.695312 -44.148438 50.0625 -42.890625 C 50.425781 -41.628906 50.675781 -40.554688 50.8125 -39.671875 Z M 50.8125 -39.671875 "></path></g></g></g><g fill="#9f86bc" fill-opacity="1"><g transform="translate(155.715463, 123.606228)"><g><path d="M 75.921875 -5.265625 C 76.054688 -4.859375 76.148438 -4.484375 76.203125 -4.140625 C 76.398438 -2.796875 76.234375 -1.804688 75.703125 -1.171875 C 75.066406 -0.378906 74.238281 0.09375 73.21875 0.25 C 73.082031 0.269531 72.941406 0.257812 72.796875 0.21875 C 71.578125 0.332031 70.222656 0.175781 68.734375 -0.25 C 67.242188 -0.6875 65.992188 -1.242188 64.984375 -1.921875 C 63.691406 -2.703125 62.425781 -3.738281 61.1875 -5.03125 C 59.945312 -6.332031 58.757812 -7.742188 57.625 -9.265625 C 56.488281 -10.796875 55.421875 -12.347656 54.421875 -13.921875 C 53.429688 -15.503906 52.515625 -16.957031 51.671875 -18.28125 C 51.003906 -16.789062 50.179688 -15.160156 49.203125 -13.390625 C 48.222656 -11.617188 47.125 -9.820312 45.90625 -8 C 44.695312 -6.1875 43.375 -4.441406 41.9375 -2.765625 C 40.5 -1.085938 38.972656 0.394531 37.359375 1.6875 C 36.117188 2.625 34.46875 3.613281 32.40625 4.65625 C 30.351562 5.695312 28.316406 6.410156 26.296875 6.796875 L 25.6875 6.890625 C 24.195312 7.117188 22.8125 7.125 21.53125 6.90625 C 20.039062 6.644531 18.597656 6.238281 17.203125 5.6875 C 15.804688 5.144531 14.4375 4.488281 13.09375 3.71875 C 11.757812 2.957031 10.453125 2.191406 9.171875 1.421875 C 7.515625 -0.285156 6 -2.332031 4.625 -4.71875 C 3.257812 -7.101562 2.164062 -9.65625 1.34375 -12.375 C 0.695312 -14.28125 0.21875 -16.253906 -0.09375 -18.296875 C -0.207031 -19.035156 -0.289062 -19.816406 -0.34375 -20.640625 C -0.632812 -23.503906 -0.507812 -26.332031 0.03125 -29.125 C 1.21875 -32.21875 2.796875 -35.035156 4.765625 -37.578125 C 6.734375 -40.128906 9.015625 -42.4375 11.609375 -44.5 C 13.597656 -45.007812 15.703125 -45.539062 17.921875 -46.09375 C 19.796875 -46.507812 21.644531 -46.859375 23.46875 -47.140625 L 24.59375 -47.3125 C 26.757812 -47.570312 28.90625 -47.65625 31.03125 -47.5625 C 33.164062 -47.46875 35.160156 -47.046875 37.015625 -46.296875 C 37.972656 -45.890625 38.742188 -45.367188 39.328125 -44.734375 C 39.910156 -44.097656 40.753906 -43.828125 41.859375 -43.921875 L 40.28125 -54.1875 C 40.09375 -54.914062 39.945312 -55.625 39.84375 -56.3125 C 39.375 -59.414062 39.109375 -62.492188 39.046875 -65.546875 C 38.898438 -69.265625 39.3125 -72.71875 40.28125 -75.90625 C 41.25 -79.101562 43.253906 -81.628906 46.296875 -83.484375 L 46.8125 -83.5625 C 48.289062 -83.789062 49.546875 -83.707031 50.578125 -83.3125 C 51.703125 -82.789062 52.648438 -82.046875 53.421875 -81.078125 C 54.203125 -80.117188 54.875 -79.023438 55.4375 -77.796875 C 56.007812 -76.566406 56.648438 -75.414062 57.359375 -74.34375 C 58.085938 -66.007812 58.257812 -57.96875 57.875 -50.21875 C 57.5 -42.46875 56.304688 -35.175781 54.296875 -28.34375 C 54.992188 -26.03125 55.835938 -23.910156 56.828125 -21.984375 C 57.828125 -20.066406 58.90625 -18.257812 60.0625 -16.5625 C 61.21875 -14.863281 62.445312 -13.242188 63.75 -11.703125 C 65.0625 -10.171875 66.351562 -8.632812 67.625 -7.09375 C 68.226562 -6.84375 68.898438 -6.671875 69.640625 -6.578125 C 70.378906 -6.484375 71.132812 -6.410156 71.90625 -6.359375 C 72.675781 -6.304688 73.414062 -6.210938 74.125 -6.078125 C 74.84375 -5.941406 75.441406 -5.671875 75.921875 -5.265625 Z M 52.75 -52.140625 C 52.8125 -52.628906 52.804688 -53.113281 52.734375 -53.59375 C 52.671875 -53.988281 52.578125 -54.390625 52.453125 -54.796875 C 52.222656 -55.304688 52.066406 -55.835938 51.984375 -56.390625 C 51.921875 -56.785156 51.894531 -57.195312 51.90625 -57.625 C 51.882812 -59.207031 51.960938 -60.859375 52.140625 -62.578125 C 52.328125 -64.304688 52.429688 -66.007812 52.453125 -67.6875 C 52.390625 -68.507812 52.296875 -69.328125 52.171875 -70.140625 C 52.046875 -70.953125 51.894531 -71.722656 51.71875 -72.453125 C 51.21875 -73.972656 50.316406 -75.363281 49.015625 -76.625 C 48.796875 -76.65625 48.585938 -76.65625 48.390625 -76.625 C 47.773438 -76.53125 47.207031 -76.164062 46.6875 -75.53125 C 46.0625 -74.664062 45.625 -73.90625 45.375 -73.25 C 44.625 -70.84375 44.332031 -68.164062 44.5 -65.21875 C 44.613281 -63.226562 44.828125 -61.210938 45.140625 -59.171875 C 45.285156 -58.160156 45.46875 -57.148438 45.6875 -56.140625 C 46.289062 -53.046875 47.015625 -49.988281 47.859375 -46.96875 C 48.710938 -43.945312 49.441406 -41.128906 50.046875 -38.515625 C 51.003906 -39.910156 51.476562 -41.5625 51.46875 -43.46875 C 51.46875 -45.375 51.597656 -47.28125 51.859375 -49.1875 C 51.910156 -49.75 52.054688 -50.238281 52.296875 -50.65625 C 52.546875 -51.082031 52.695312 -51.578125 52.75 -52.140625 Z M 47.9375 -27.078125 L 47.84375 -27.671875 C 47.707031 -28.554688 47.46875 -29.457031 47.125 -30.375 C 46.695312 -31.414062 46.179688 -32.429688 45.578125 -33.421875 C 44.984375 -34.410156 44.3125 -35.28125 43.5625 -36.03125 C 42.820312 -36.78125 42.101562 -37.410156 41.40625 -37.921875 C 40.707031 -38.367188 39.742188 -38.863281 38.515625 -39.40625 C 37.296875 -39.945312 35.972656 -40.453125 34.546875 -40.921875 C 33.117188 -41.398438 31.726562 -41.757812 30.375 -42 C 29.03125 -42.25 27.847656 -42.332031 26.828125 -42.25 C 25.867188 -42.164062 24.945312 -42.054688 24.0625 -41.921875 C 19.925781 -41.285156 16.488281 -39.96875 13.75 -37.96875 C 10.375 -35.507812 8.03125 -32.484375 6.71875 -28.890625 C 5.5 -25.503906 5.179688 -21.882812 5.765625 -18.03125 C 5.828125 -17.625 5.921875 -17.253906 6.046875 -16.921875 C 6.847656 -12.609375 8.773438 -8.363281 11.828125 -4.1875 C 13.054688 -3 14.476562 -1.988281 16.09375 -1.15625 C 17.71875 -0.332031 19.445312 0.175781 21.28125 0.375 C 22.832031 0.632812 24.457031 0.632812 26.15625 0.375 L 26.875 0.265625 C 28.75 -0.0859375 30.5625 -0.882812 32.3125 -2.125 C 34.070312 -3.289062 35.882812 -4.914062 37.75 -7 C 39.613281 -9.09375 41.335938 -11.316406 42.921875 -13.671875 C 44.503906 -16.035156 45.769531 -18.394531 46.71875 -20.75 C 47.675781 -23.113281 48.082031 -25.222656 47.9375 -27.078125 Z M 47.9375 -27.078125 "></path></g></g></g><g fill="#9f86bc" fill-opacity="1"><g transform="translate(222.415019, 113.4199)"><g><path d="M 0.40625 -67.421875 C 1.644531 -68.441406 2.703125 -69.019531 3.578125 -69.15625 L 4.078125 -69.234375 C 4.992188 -69.160156 5.679688 -68.78125 6.140625 -68.09375 C 6.347656 -67.644531 6.492188 -67.113281 6.578125 -66.5 L 6.71875 -65.578125 C 6.664062 -64.535156 6.421875 -63.671875 5.984375 -62.984375 C 5.515625 -62.359375 4.910156 -61.988281 4.171875 -61.875 C 4.023438 -61.851562 3.914062 -61.867188 3.84375 -61.921875 C 2.882812 -61.835938 1.726562 -62.390625 0.375 -63.578125 C 0.257812 -63.835938 0.1875 -64.066406 0.15625 -64.265625 C 0.0820312 -64.804688 0.15625 -65.265625 0.375 -65.640625 C 0.519531 -66.015625 0.550781 -66.472656 0.46875 -67.015625 Z M 19.4375 2.640625 C 18.800781 3.015625 18.210938 3.242188 17.671875 3.328125 C 17.265625 3.390625 16.90625 3.34375 16.59375 3.1875 C 15.800781 2.957031 15.101562 2.453125 14.5 1.671875 C 13.894531 0.898438 13.375 0.015625 12.9375 -0.984375 C 12.507812 -1.992188 12.0625 -2.914062 11.59375 -3.75 C 9.988281 -6.476562 8.492188 -9.640625 7.109375 -13.234375 C 5.734375 -16.835938 4.578125 -20.613281 3.640625 -24.5625 C 2.859375 -27.851562 2.207031 -31.1875 1.6875 -34.5625 L 1.390625 -36.609375 C 0.835938 -40.597656 0.597656 -44.363281 0.671875 -47.90625 C 1.429688 -48.851562 2.320312 -49.40625 3.34375 -49.5625 L 3.75 -49.625 C 4.914062 -49.675781 5.820312 -49.195312 6.46875 -48.1875 C 6.726562 -47.8125 6.894531 -47.390625 6.96875 -46.921875 C 7.039062 -46.429688 7.050781 -45.910156 7 -45.359375 C 6.832031 -44.148438 6.78125 -42.894531 6.84375 -41.59375 C 6.945312 -40.070312 7.132812 -38.398438 7.40625 -36.578125 L 7.6875 -34.75 C 8.144531 -32.175781 8.535156 -30.050781 8.859375 -28.375 C 9.078125 -26.957031 9.367188 -25.394531 9.734375 -23.6875 C 10.097656 -21.976562 10.550781 -20.257812 11.09375 -18.53125 C 11.644531 -16.8125 12.234375 -15.132812 12.859375 -13.5 C 13.492188 -11.875 14.179688 -10.421875 14.921875 -9.140625 C 15.503906 -8.046875 16.210938 -7.023438 17.046875 -6.078125 C 17.890625 -5.140625 18.601562 -4.226562 19.1875 -3.34375 C 19.769531 -2.46875 20.132812 -1.554688 20.28125 -0.609375 C 20.4375 0.410156 20.15625 1.492188 19.4375 2.640625 Z M 19.4375 2.640625 "></path></g></g></g><g fill="#9f86bc" fill-opacity="1"><g transform="translate(238.217953, 111.006483)"><g><path d="M 56.53125 -42.328125 C 57.519531 -39.492188 58.207031 -36.828125 58.59375 -34.328125 C 58.945312 -31.953125 59.039062 -29.707031 58.875 -27.59375 C 58.519531 -23.175781 57.296875 -19.28125 55.203125 -15.90625 C 53.117188 -12.539062 50.300781 -9.671875 46.75 -7.296875 C 43.207031 -4.921875 39.257812 -2.988281 34.90625 -1.5 C 30.351562 -0.9375 26.117188 -0.875 22.203125 -1.3125 C 18.285156 -1.75 14.738281 -2.835938 11.5625 -4.578125 C 10.207031 -5.265625 9.046875 -6.171875 8.078125 -7.296875 C 7.109375 -8.429688 6.21875 -9.632812 5.40625 -10.90625 C 4.59375 -12.175781 3.785156 -13.492188 2.984375 -14.859375 C 2.179688 -16.222656 1.300781 -17.554688 0.34375 -18.859375 C 0.375 -22.335938 0.40625 -25.773438 0.4375 -29.171875 C 0.46875 -32.578125 0.8125 -35.78125 1.46875 -38.78125 C 2.726562 -40.914062 4.226562 -43.085938 5.96875 -45.296875 C 7.707031 -47.515625 9.6875 -49.53125 11.90625 -51.34375 C 14.125 -53.164062 16.566406 -54.671875 19.234375 -55.859375 C 21.046875 -56.679688 22.96875 -57.25 25 -57.5625 C 25.875 -57.695312 26.796875 -57.765625 27.765625 -57.765625 C 28.867188 -57.796875 30.179688 -57.71875 31.703125 -57.53125 C 33.222656 -57.351562 34.75 -57.101562 36.28125 -56.78125 C 37.820312 -56.46875 39.304688 -56.070312 40.734375 -55.59375 C 42.160156 -55.125 43.328125 -54.613281 44.234375 -54.0625 C 45.003906 -53.539062 45.710938 -52.984375 46.359375 -52.390625 C 47.003906 -51.804688 47.632812 -51.195312 48.25 -50.5625 C 48.875 -49.925781 49.550781 -49.351562 50.28125 -48.84375 C 51.019531 -48.332031 51.894531 -47.945312 52.90625 -47.6875 C 53.53125 -46.8125 54.109375 -45.878906 54.640625 -44.890625 C 55.171875 -43.898438 55.800781 -43.046875 56.53125 -42.328125 Z M 53.734375 -26.609375 C 53.753906 -27.859375 53.675781 -29.09375 53.5 -30.3125 C 53.351562 -31.257812 53.164062 -32.238281 52.9375 -33.25 C 52.238281 -35.488281 51.691406 -37.691406 51.296875 -39.859375 C 50.171875 -40.378906 49.15625 -41.085938 48.25 -41.984375 C 47.351562 -42.890625 46.488281 -43.832031 45.65625 -44.8125 C 44.820312 -45.789062 43.96875 -46.734375 43.09375 -47.640625 C 42.226562 -48.554688 41.226562 -49.304688 40.09375 -49.890625 C 37.800781 -50.367188 35.617188 -50.914062 33.546875 -51.53125 C 31.484375 -52.144531 29.359375 -52.328125 27.171875 -52.078125 L 26.578125 -51.984375 C 23.867188 -51.566406 21.628906 -50.773438 19.859375 -49.609375 C 17.898438 -48.328125 16.078125 -46.90625 14.390625 -45.34375 C 13.179688 -44.1875 12.09375 -43.117188 11.125 -42.140625 C 10.164062 -41.171875 9.335938 -40.144531 8.640625 -39.0625 C 7.941406 -37.976562 7.335938 -36.820312 6.828125 -35.59375 C 6.316406 -34.375 5.9375 -32.988281 5.6875 -31.4375 C 5.476562 -28.769531 5.550781 -26.28125 5.90625 -23.96875 C 6.15625 -22.28125 6.570312 -20.679688 7.15625 -19.171875 C 8.53125 -15.640625 10.609375 -12.703125 13.390625 -10.359375 C 14.921875 -9.835938 16.53125 -9.269531 18.21875 -8.65625 C 19.90625 -8.050781 21.660156 -7.554688 23.484375 -7.171875 C 25.304688 -6.785156 27.15625 -6.597656 29.03125 -6.609375 C 30.007812 -6.554688 31.007812 -6.609375 32.03125 -6.765625 C 32.90625 -6.898438 33.804688 -7.109375 34.734375 -7.390625 C 36.984375 -8.066406 39.21875 -9.0625 41.4375 -10.375 C 43.664062 -11.695312 45.65625 -13.21875 47.40625 -14.9375 C 49.164062 -16.65625 50.617188 -18.503906 51.765625 -20.484375 C 52.921875 -22.460938 53.578125 -24.503906 53.734375 -26.609375 Z M 53.734375 -26.609375 "></path></g></g></g></g></g></g></g></g><g clip-path="url(#11ff684df6)"><path fill="#d5d6bc" d="M 1098.0625 1164.058594 L 457.539062 1164.058594 C 456.003906 1164.054688 454.472656 1164.015625 452.9375 1163.9375 C 451.40625 1163.863281 449.875 1163.746094 448.347656 1163.59375 C 446.820312 1163.441406 445.300781 1163.253906 443.78125 1163.027344 C 442.265625 1162.800781 440.753906 1162.535156 439.25 1162.234375 C 437.742188 1161.933594 436.246094 1161.59375 434.757812 1161.222656 C 433.269531 1160.847656 431.792969 1160.4375 430.324219 1159.988281 C 428.855469 1159.542969 427.398438 1159.058594 425.957031 1158.542969 C 424.511719 1158.023438 423.078125 1157.46875 421.664062 1156.882812 C 420.246094 1156.292969 418.84375 1155.671875 417.457031 1155.015625 C 416.070312 1154.355469 414.699219 1153.667969 413.347656 1152.941406 C 411.992188 1152.21875 410.660156 1151.460938 409.34375 1150.671875 C 408.027344 1149.882812 406.730469 1149.058594 405.457031 1148.207031 C 404.179688 1147.351562 402.925781 1146.46875 401.695312 1145.554688 C 400.464844 1144.640625 399.253906 1143.695312 398.066406 1142.722656 C 396.882812 1141.746094 395.722656 1140.746094 394.585938 1139.714844 C 393.445312 1138.683594 392.335938 1137.625 391.25 1136.539062 C 390.167969 1135.453125 389.109375 1134.34375 388.078125 1133.207031 C 387.046875 1132.070312 386.046875 1130.90625 385.074219 1129.71875 C 384.101562 1128.535156 383.15625 1127.324219 382.242188 1126.09375 C 381.328125 1124.859375 380.445312 1123.605469 379.589844 1122.328125 C 378.738281 1121.054688 377.917969 1119.757812 377.128906 1118.441406 C 376.339844 1117.125 375.582031 1115.789062 374.859375 1114.4375 C 374.136719 1113.082031 373.445312 1111.714844 372.789062 1110.324219 C 372.132812 1108.9375 371.511719 1107.535156 370.921875 1106.117188 C 370.335938 1104.703125 369.785156 1103.269531 369.265625 1101.824219 C 368.75 1100.378906 368.265625 1098.925781 367.820312 1097.457031 C 367.375 1095.988281 366.964844 1094.507812 366.589844 1093.019531 C 366.21875 1091.53125 365.878906 1090.035156 365.578125 1088.53125 C 365.28125 1087.027344 365.015625 1085.515625 364.789062 1083.996094 C 364.5625 1082.480469 364.375 1080.957031 364.222656 1079.429688 C 364.074219 1077.902344 363.957031 1076.371094 363.882812 1074.839844 C 363.804688 1073.308594 363.765625 1071.773438 363.765625 1070.238281 L 363.765625 429.714844 C 363.765625 428.179688 363.808594 426.648438 363.882812 425.117188 C 363.960938 423.582031 364.074219 422.054688 364.226562 420.527344 C 364.378906 419 364.570312 417.480469 364.796875 415.960938 C 365.023438 414.445312 365.285156 412.933594 365.585938 411.429688 C 365.886719 409.925781 366.226562 408.429688 366.601562 406.941406 C 366.972656 405.453125 367.382812 403.976562 367.832031 402.507812 C 368.277344 401.039062 368.761719 399.585938 369.277344 398.140625 C 369.796875 396.695312 370.347656 395.265625 370.9375 393.847656 C 371.523438 392.429688 372.148438 391.03125 372.804688 389.644531 C 373.460938 388.257812 374.152344 386.886719 374.875 385.535156 C 375.597656 384.183594 376.355469 382.847656 377.144531 381.53125 C 377.933594 380.21875 378.753906 378.921875 379.605469 377.644531 C 380.460938 376.371094 381.34375 375.117188 382.257812 373.886719 C 383.171875 372.652344 384.117188 371.445312 385.089844 370.257812 C 386.0625 369.074219 387.066406 367.910156 388.09375 366.773438 C 389.125 365.636719 390.183594 364.527344 391.265625 363.441406 C 392.351562 362.359375 393.464844 361.300781 394.601562 360.269531 C 395.734375 359.238281 396.898438 358.238281 398.082031 357.265625 C 399.269531 356.292969 400.476562 355.347656 401.710938 354.433594 C 402.941406 353.519531 404.195312 352.636719 405.472656 351.78125 C 406.746094 350.929688 408.042969 350.109375 409.355469 349.320312 C 410.671875 348.53125 412.007812 347.773438 413.359375 347.050781 C 414.710938 346.328125 416.082031 345.636719 417.46875 344.980469 C 418.855469 344.324219 420.257812 343.699219 421.671875 343.113281 C 423.089844 342.523438 424.519531 341.972656 425.964844 341.453125 C 427.410156 340.933594 428.863281 340.453125 430.332031 340.007812 C 431.800781 339.558594 433.277344 339.148438 434.765625 338.777344 C 436.253906 338.402344 437.75 338.0625 439.253906 337.761719 C 440.757812 337.460938 442.269531 337.199219 443.785156 336.972656 C 445.304688 336.746094 446.824219 336.554688 448.351562 336.402344 C 449.878906 336.25 451.40625 336.136719 452.941406 336.058594 C 454.472656 335.984375 456.003906 335.941406 457.539062 335.941406 L 1098.0625 335.941406 C 1099.597656 335.941406 1101.132812 335.980469 1102.664062 336.058594 C 1104.195312 336.132812 1105.726562 336.246094 1107.253906 336.398438 C 1108.78125 336.550781 1110.304688 336.738281 1111.820312 336.964844 C 1113.339844 337.191406 1114.851562 337.457031 1116.355469 337.753906 C 1117.859375 338.054688 1119.355469 338.394531 1120.84375 338.765625 C 1122.332031 339.140625 1123.8125 339.550781 1125.28125 339.996094 C 1126.75 340.441406 1128.207031 340.925781 1129.648438 341.441406 C 1131.09375 341.957031 1132.527344 342.511719 1133.945312 343.097656 C 1135.359375 343.6875 1136.761719 344.308594 1138.152344 344.964844 C 1139.539062 345.621094 1140.90625 346.3125 1142.261719 347.035156 C 1143.613281 347.757812 1144.949219 348.515625 1146.265625 349.304688 C 1147.582031 350.09375 1148.878906 350.914062 1150.152344 351.765625 C 1151.429688 352.621094 1152.683594 353.503906 1153.917969 354.417969 C 1155.148438 355.332031 1156.359375 356.273438 1157.546875 357.25 C 1158.730469 358.222656 1159.894531 359.222656 1161.03125 360.253906 C 1162.167969 361.285156 1163.277344 362.34375 1164.363281 363.425781 C 1165.449219 364.511719 1166.507812 365.621094 1167.539062 366.757812 C 1168.570312 367.894531 1169.570312 369.058594 1170.546875 370.242188 C 1171.519531 371.429688 1172.464844 372.636719 1173.378906 373.871094 C 1174.292969 375.101562 1175.179688 376.355469 1176.03125 377.632812 C 1176.882812 378.90625 1177.707031 380.203125 1178.496094 381.519531 C 1179.285156 382.835938 1180.042969 384.167969 1180.765625 385.523438 C 1181.492188 386.875 1182.179688 388.246094 1182.839844 389.632812 C 1183.496094 391.019531 1184.117188 392.421875 1184.707031 393.839844 C 1185.296875 395.253906 1185.847656 396.6875 1186.367188 398.128906 C 1186.886719 399.574219 1187.367188 401.03125 1187.8125 402.5 C 1188.261719 403.96875 1188.671875 405.445312 1189.046875 406.933594 C 1189.421875 408.421875 1189.757812 409.917969 1190.058594 411.421875 C 1190.359375 412.929688 1190.625 414.441406 1190.851562 415.957031 C 1191.078125 417.476562 1191.265625 418.996094 1191.417969 420.523438 C 1191.570312 422.050781 1191.6875 423.582031 1191.761719 425.113281 C 1191.839844 426.648438 1191.878906 428.179688 1191.882812 429.714844 L 1191.882812 1070.238281 C 1191.882812 1071.773438 1191.84375 1073.308594 1191.765625 1074.839844 C 1191.6875 1076.375 1191.574219 1077.90625 1191.421875 1079.433594 C 1191.273438 1080.960938 1191.082031 1082.484375 1190.855469 1084 C 1190.628906 1085.519531 1190.367188 1087.03125 1190.066406 1088.535156 C 1189.765625 1090.042969 1189.429688 1091.539062 1189.054688 1093.027344 C 1188.679688 1094.515625 1188.269531 1095.996094 1187.824219 1097.464844 C 1187.378906 1098.933594 1186.898438 1100.390625 1186.378906 1101.835938 C 1185.859375 1103.28125 1185.308594 1104.710938 1184.71875 1106.128906 C 1184.132812 1107.546875 1183.507812 1108.949219 1182.851562 1110.335938 C 1182.195312 1111.726562 1181.503906 1113.09375 1180.78125 1114.449219 C 1180.058594 1115.800781 1179.300781 1117.136719 1178.511719 1118.453125 C 1177.722656 1119.769531 1176.898438 1121.066406 1176.046875 1122.34375 C 1175.195312 1123.621094 1174.308594 1124.875 1173.394531 1126.105469 C 1172.480469 1127.339844 1171.535156 1128.550781 1170.5625 1129.734375 C 1169.589844 1130.921875 1168.585938 1132.085938 1167.554688 1133.222656 C 1166.523438 1134.359375 1165.464844 1135.46875 1164.378906 1136.554688 C 1163.292969 1137.640625 1162.183594 1138.699219 1161.046875 1139.730469 C 1159.910156 1140.761719 1158.746094 1141.761719 1157.558594 1142.738281 C 1156.375 1143.710938 1155.164062 1144.65625 1153.929688 1145.570312 C 1152.699219 1146.484375 1151.445312 1147.367188 1150.167969 1148.222656 C 1148.890625 1149.074219 1147.59375 1149.898438 1146.277344 1150.6875 C 1144.960938 1151.476562 1143.628906 1152.234375 1142.273438 1152.957031 C 1140.921875 1153.679688 1139.550781 1154.371094 1138.164062 1155.027344 C 1136.773438 1155.683594 1135.371094 1156.308594 1133.953125 1156.894531 C 1132.535156 1157.484375 1131.105469 1158.035156 1129.660156 1158.554688 C 1128.214844 1159.070312 1126.757812 1159.554688 1125.289062 1160 C 1123.820312 1160.445312 1122.339844 1160.855469 1120.851562 1161.230469 C 1119.363281 1161.605469 1117.867188 1161.941406 1116.359375 1162.242188 C 1114.855469 1162.542969 1113.34375 1162.804688 1111.824219 1163.03125 C 1110.308594 1163.257812 1108.785156 1163.449219 1107.257812 1163.597656 C 1105.730469 1163.75 1104.199219 1163.863281 1102.664062 1163.941406 C 1101.132812 1164.019531 1099.597656 1164.058594 1098.0625 1164.058594 Z M 457.539062 358.566406 C 456.375 358.570312 455.210938 358.597656 454.050781 358.660156 C 452.886719 358.71875 451.726562 358.804688 450.570312 358.921875 C 449.410156 359.035156 448.257812 359.179688 447.105469 359.351562 C 445.953125 359.527344 444.808594 359.726562 443.667969 359.953125 C 442.527344 360.183594 441.390625 360.441406 440.261719 360.722656 C 439.132812 361.007812 438.011719 361.320312 436.898438 361.660156 C 435.785156 361.996094 434.683594 362.363281 433.585938 362.757812 C 432.492188 363.148438 431.40625 363.570312 430.332031 364.015625 C 429.257812 364.460938 428.195312 364.933594 427.140625 365.433594 C 426.089844 365.929688 425.050781 366.457031 424.023438 367.003906 C 423 367.554688 421.988281 368.128906 420.988281 368.726562 C 419.992188 369.324219 419.007812 369.949219 418.042969 370.597656 C 417.074219 371.242188 416.121094 371.914062 415.1875 372.605469 C 414.253906 373.300781 413.335938 374.015625 412.4375 374.753906 C 411.539062 375.492188 410.65625 376.253906 409.792969 377.035156 C 408.933594 377.816406 408.089844 378.621094 407.265625 379.441406 C 406.445312 380.265625 405.640625 381.109375 404.859375 381.96875 C 404.078125 382.832031 403.316406 383.714844 402.578125 384.613281 C 401.839844 385.511719 401.125 386.429688 400.429688 387.363281 C 399.738281 388.296875 399.066406 389.25 398.421875 390.214844 C 397.773438 391.183594 397.148438 392.167969 396.550781 393.164062 C 395.953125 394.164062 395.378906 395.175781 394.828125 396.199219 C 394.28125 397.226562 393.757812 398.265625 393.257812 399.316406 C 392.757812 400.367188 392.285156 401.433594 391.839844 402.507812 C 391.394531 403.582031 390.972656 404.667969 390.582031 405.761719 C 390.1875 406.859375 389.820312 407.960938 389.484375 409.074219 C 389.144531 410.1875 388.832031 411.308594 388.546875 412.4375 C 388.265625 413.566406 388.007812 414.703125 387.777344 415.84375 C 387.550781 416.984375 387.351562 418.128906 387.179688 419.28125 C 387.003906 420.433594 386.859375 421.585938 386.746094 422.746094 C 386.628906 423.902344 386.542969 425.0625 386.484375 426.226562 C 386.425781 427.386719 386.394531 428.550781 386.390625 429.714844 L 386.390625 1070.238281 C 386.394531 1071.402344 386.421875 1072.566406 386.480469 1073.730469 C 386.539062 1074.890625 386.625 1076.054688 386.742188 1077.210938 C 386.855469 1078.371094 387 1079.523438 387.171875 1080.675781 C 387.34375 1081.828125 387.542969 1082.976562 387.769531 1084.117188 C 388 1085.257812 388.253906 1086.394531 388.539062 1087.523438 C 388.824219 1088.652344 389.132812 1089.773438 389.472656 1090.886719 C 389.8125 1092.003906 390.175781 1093.105469 390.570312 1094.203125 C 390.960938 1095.300781 391.382812 1096.386719 391.828125 1097.460938 C 392.273438 1098.535156 392.746094 1099.601562 393.242188 1100.652344 C 393.742188 1101.703125 394.265625 1102.746094 394.816406 1103.769531 C 395.363281 1104.796875 395.9375 1105.808594 396.535156 1106.808594 C 397.136719 1107.808594 397.757812 1108.789062 398.40625 1109.757812 C 399.050781 1110.726562 399.722656 1111.679688 400.414062 1112.613281 C 401.109375 1113.546875 401.824219 1114.464844 402.5625 1115.367188 C 403.300781 1116.265625 404.0625 1117.148438 404.84375 1118.011719 C 405.625 1118.875 406.425781 1119.71875 407.25 1120.539062 C 408.074219 1121.363281 408.917969 1122.167969 409.777344 1122.949219 C 410.640625 1123.730469 411.523438 1124.492188 412.421875 1125.230469 C 413.320312 1125.96875 414.238281 1126.6875 415.171875 1127.382812 C 416.109375 1128.074219 417.058594 1128.746094 418.027344 1129.394531 C 418.996094 1130.042969 419.976562 1130.664062 420.976562 1131.265625 C 421.972656 1131.863281 422.988281 1132.4375 424.011719 1132.988281 C 425.039062 1133.539062 426.078125 1134.0625 427.128906 1134.558594 C 428.183594 1135.058594 429.246094 1135.53125 430.320312 1135.976562 C 431.394531 1136.425781 432.480469 1136.84375 433.578125 1137.238281 C 434.671875 1137.632812 435.777344 1138 436.890625 1138.339844 C 438.003906 1138.675781 439.128906 1138.988281 440.257812 1139.273438 C 441.386719 1139.558594 442.519531 1139.8125 443.664062 1140.042969 C 444.804688 1140.273438 445.949219 1140.472656 447.101562 1140.644531 C 448.253906 1140.816406 449.410156 1140.960938 450.566406 1141.078125 C 451.726562 1141.195312 452.886719 1141.28125 454.046875 1141.339844 C 455.210938 1141.398438 456.375 1141.429688 457.539062 1141.433594 L 1098.0625 1141.433594 C 1099.226562 1141.429688 1100.390625 1141.402344 1101.554688 1141.34375 C 1102.71875 1141.285156 1103.878906 1141.195312 1105.039062 1141.082031 C 1106.199219 1140.964844 1107.351562 1140.824219 1108.503906 1140.652344 C 1109.65625 1140.480469 1110.804688 1140.277344 1111.945312 1140.050781 C 1113.089844 1139.824219 1114.226562 1139.566406 1115.355469 1139.28125 C 1116.484375 1139 1117.605469 1138.6875 1118.71875 1138.347656 C 1119.835938 1138.007812 1120.941406 1137.644531 1122.035156 1137.25 C 1123.132812 1136.859375 1124.21875 1136.4375 1125.296875 1135.992188 C 1126.371094 1135.546875 1127.433594 1135.074219 1128.488281 1134.574219 C 1129.539062 1134.074219 1130.582031 1133.550781 1131.609375 1133.003906 C 1132.632812 1132.453125 1133.648438 1131.878906 1134.648438 1131.277344 C 1135.644531 1130.679688 1136.628906 1130.054688 1137.597656 1129.410156 C 1138.566406 1128.761719 1139.515625 1128.089844 1140.453125 1127.398438 C 1141.386719 1126.703125 1142.304688 1125.988281 1143.207031 1125.246094 C 1144.105469 1124.507812 1144.988281 1123.746094 1145.851562 1122.964844 C 1146.714844 1122.183594 1147.558594 1121.378906 1148.382812 1120.558594 C 1149.203125 1119.734375 1150.007812 1118.890625 1150.789062 1118.027344 C 1151.570312 1117.164062 1152.332031 1116.28125 1153.070312 1115.382812 C 1153.8125 1114.480469 1154.527344 1113.5625 1155.222656 1112.628906 C 1155.914062 1111.691406 1156.585938 1110.742188 1157.234375 1109.773438 C 1157.882812 1108.804688 1158.503906 1107.820312 1159.101562 1106.820312 C 1159.703125 1105.824219 1160.277344 1104.808594 1160.828125 1103.785156 C 1161.375 1102.757812 1161.898438 1101.714844 1162.398438 1100.664062 C 1162.898438 1099.609375 1163.371094 1098.546875 1163.816406 1097.472656 C 1164.261719 1096.394531 1164.683594 1095.308594 1165.074219 1094.210938 C 1165.46875 1093.117188 1165.835938 1092.011719 1166.171875 1090.894531 C 1166.511719 1089.78125 1166.824219 1088.660156 1167.105469 1087.53125 C 1167.390625 1086.398438 1167.648438 1085.265625 1167.875 1084.121094 C 1168.101562 1082.980469 1168.304688 1081.832031 1168.476562 1080.679688 C 1168.648438 1079.527344 1168.789062 1078.375 1168.90625 1077.214844 C 1169.023438 1076.054688 1169.109375 1074.894531 1169.167969 1073.730469 C 1169.226562 1072.566406 1169.253906 1071.402344 1169.257812 1070.238281 L 1169.257812 429.714844 C 1169.253906 428.550781 1169.222656 427.386719 1169.164062 426.222656 C 1169.105469 425.0625 1169.019531 423.902344 1168.902344 422.742188 C 1168.785156 421.582031 1168.640625 420.429688 1168.46875 419.277344 C 1168.296875 418.125 1168.097656 416.980469 1167.867188 415.835938 C 1167.640625 414.695312 1167.382812 413.5625 1167.097656 412.433594 C 1166.8125 411.304688 1166.5 410.179688 1166.164062 409.066406 C 1165.824219 407.953125 1165.457031 406.847656 1165.0625 405.753906 C 1164.667969 404.65625 1164.25 403.570312 1163.804688 402.496094 C 1163.355469 401.421875 1162.882812 400.359375 1162.386719 399.304688 C 1161.886719 398.253906 1161.363281 397.214844 1160.8125 396.1875 C 1160.261719 395.160156 1159.6875 394.148438 1159.089844 393.152344 C 1158.488281 392.152344 1157.867188 391.171875 1157.21875 390.203125 C 1156.570312 389.234375 1155.898438 388.285156 1155.207031 387.347656 C 1154.511719 386.414062 1153.796875 385.496094 1153.054688 384.597656 C 1152.316406 383.699219 1151.554688 382.816406 1150.773438 381.953125 C 1149.992188 381.09375 1149.1875 380.25 1148.367188 379.425781 C 1147.542969 378.601562 1146.699219 377.800781 1145.835938 377.019531 C 1144.972656 376.238281 1144.089844 375.476562 1143.191406 374.738281 C 1142.289062 374 1141.375 373.285156 1140.4375 372.589844 C 1139.503906 371.898438 1138.550781 371.226562 1137.582031 370.582031 C 1136.613281 369.933594 1135.632812 369.308594 1134.632812 368.710938 C 1133.632812 368.113281 1132.621094 367.539062 1131.59375 366.988281 C 1130.570312 366.441406 1129.527344 365.917969 1128.476562 365.417969 C 1127.425781 364.921875 1126.359375 364.449219 1125.285156 364.003906 C 1124.210938 363.558594 1123.125 363.136719 1122.027344 362.746094 C 1120.929688 362.351562 1119.828125 361.988281 1118.710938 361.648438 C 1117.597656 361.308594 1116.476562 361 1115.347656 360.714844 C 1114.21875 360.429688 1113.082031 360.175781 1111.941406 359.945312 C 1110.800781 359.71875 1109.652344 359.519531 1108.5 359.347656 C 1107.351562 359.175781 1106.195312 359.03125 1105.035156 358.917969 C 1103.878906 358.800781 1102.714844 358.714844 1101.554688 358.65625 C 1100.390625 358.597656 1099.226562 358.566406 1098.0625 358.566406 Z M 457.539062 358.566406 " fill-opacity="1" fill-rule="nonzero"></path></g></svg>